<svg xmlns="http://www.w3.org/2000/svg" width="59" height="52" viewBox="0 0 59 52" fill="none"><g clip-path="url(#clip0_6002_469)"><path d="M38.6056 43.1635C37.5437 45.5978 35.7672 47.656 33.5144 49.0809C31.8868 50.2189 29.7928 50.4564 27.9469 49.734C26.1903 48.794 25.0291 47.0524 24.8406 45.0733C24.4635 42.4412 24.8902 39.7595 26.0613 37.3747C27.1232 34.9405 28.8996 32.8823 31.1524 31.4573C32.2243 30.7845 33.4549 30.4084 34.7153 30.3688C35.41 30.3688 36.0848 30.5074 36.72 30.7943C40.1836 32.3875 41.0371 37.9289 38.6155 43.1536M20.5037 34.8217C22.9153 29.6069 27.6988 26.6581 31.1624 28.2414L32.522 28.8648C31.7082 29.1022 30.9341 29.4387 30.1997 29.8741C27.6293 31.487 25.6048 33.8322 24.3741 36.6029C23.0542 39.3241 22.5778 42.3917 23.0145 45.39C23.1634 46.2212 23.4016 47.0326 23.7489 47.8044L22.3992 47.181C18.9257 45.578 18.0821 40.0366 20.4937 34.8217M14.5491 31.8037C14.5292 31.7542 14.5094 31.6948 14.4995 31.6355C14.4498 31.21 14.5292 30.7845 14.7178 30.4084C14.8865 29.9631 15.2239 29.597 15.6507 29.3793L20.0868 31.7938C19.6105 32.5062 19.1937 33.2583 18.8265 34.04C18.8165 34.0598 18.8066 34.0895 18.7967 34.1093L14.5491 31.7938V31.8037ZM37.4842 29.1319L31.9265 26.5789C28.5523 25.0254 24.2848 26.668 21.1984 30.3194L16.3454 27.6773C15.2736 27.1825 13.7551 28.0929 13.0406 29.6366C12.6932 30.3491 12.5642 31.1605 12.6734 31.9422C12.7329 32.5557 13.0902 33.0901 13.6261 33.3968L18.1119 35.8509C16.2561 41.4417 17.6455 47.0227 21.6053 48.8434L27.1629 51.3964C28.0362 51.7923 28.979 52.0001 29.9417 52.0001C31.5395 51.9605 33.0976 51.4954 34.4473 50.6543C37.0177 49.0413 39.0522 46.6962 40.2729 43.9255C43.1212 37.8002 41.8608 31.1605 37.4842 29.1418" fill="#BE0000"></path><path d="M7.07608 27.1529C6.65926 28.0434 6.32183 28.9736 6.0638 29.9236C5.61721 31.4178 5.54774 33.1791 5.53781 33.8916C5.53781 33.8916 5.53781 33.9609 5.53781 34.0004C5.53781 35.5045 5.85539 36.9888 6.46077 38.3544L5.0813 37.7211C3.32469 36.781 2.16355 35.0394 1.97499 33.0604C1.59786 30.4282 2.02461 27.7466 3.19568 25.3618C4.2675 22.9276 6.03403 20.8693 8.28685 19.4444C9.91443 18.3163 12.0085 18.0689 13.8544 18.7814C13.8742 18.7814 13.8941 18.8012 13.9139 18.8111L15.2537 19.4246C11.5619 20.7308 8.5945 23.5411 7.08601 27.143M24.3841 26.005C24.2749 24.6592 23.8184 23.3926 23.0939 22.3041C22.3694 21.2157 21.377 20.3053 20.1762 19.6819L14.6285 17.1289C14.6285 17.1289 14.5888 17.1091 14.5689 17.0992C12.1772 16.1492 9.47776 16.4362 7.34404 17.871C4.77364 19.484 2.74908 21.8292 1.51847 24.5999C-1.32981 30.7449 -0.0694185 37.3846 4.3072 39.4033L9.86481 41.9563C10.7282 42.3521 11.671 42.55 12.6337 42.55C13.8147 42.5401 14.9858 42.2729 16.0576 41.7782C16.524 41.5704 16.7324 41.0261 16.524 40.561C16.3156 40.096 15.7698 39.8882 15.3033 40.096C13.8544 40.8381 12.1474 40.9074 10.6389 40.284C8.68382 39.3835 7.47305 37.1175 7.38374 34.1884C7.38374 34.1884 7.38374 34.1489 7.38374 34.0994C7.38374 33.753 7.40358 32.4667 7.64177 31.2396C7.64177 31.21 7.66162 31.1803 7.66162 31.1407C7.8998 30.0324 8.25707 28.9538 8.74337 27.9247C11.155 22.7099 15.9385 19.7511 19.4021 21.3542C21.2381 22.3437 22.429 24.2041 22.558 26.2722C22.6275 26.7768 23.0939 27.1232 23.6001 27.0539C24.1062 26.9846 24.4535 26.5196 24.3841 26.0149" fill="#BE0000"></path><path d="M43.3295 34.0399C42.8233 34.0399 42.4164 34.4654 42.4164 34.9701C42.4164 35.4747 42.8432 35.8804 43.3493 35.8804H43.3791C47.0809 35.7914 50.0085 32.7238 49.9093 29.0329C49.81 25.3419 46.7434 22.4228 43.0417 22.5217C40.4316 22.591 38.0994 24.1545 37.0573 26.5392C36.8489 27.0043 37.0672 27.5486 37.5337 27.7465C38.0001 27.9543 38.546 27.7465 38.7444 27.2715C39.8163 24.8174 42.6745 23.6894 45.1357 24.7581C47.5969 25.8268 48.7283 28.6766 47.6565 31.1307C46.9022 32.8624 45.2151 34.0003 43.3195 34.0399H43.3295Z" fill="#BE0000"></path><path d="M56.3998 13.2499L53.6111 19.2563C53.0553 18.6824 52.4499 18.1579 51.8148 17.683L54.3157 12.29C55.6555 9.41047 54.3951 5.99657 51.5071 4.6706C50.7429 4.32426 49.9192 4.13625 49.0856 4.13625H37.4345C34.2487 4.13625 31.6684 6.70904 31.6784 9.88544C31.6784 10.7167 31.857 11.538 32.2143 12.2999L34.6755 17.6038C34.0304 18.0788 33.425 18.6032 32.8693 19.1673L30.1202 13.2598C28.2445 9.23235 30.0011 4.4628 34.0403 2.59258C35.1022 2.09781 36.2634 1.85043 37.4345 1.85043H49.0856C53.5317 1.85043 57.1441 5.44244 57.1441 9.88544C57.1441 11.0531 56.8861 12.201 56.3998 13.2598M36.2535 16.5945L33.8915 11.5182C32.9784 9.5589 33.8319 7.24339 35.7969 6.33302C36.313 6.09553 36.8787 5.96689 37.4444 5.96689H49.0856C51.2491 5.96689 53.0057 7.70847 53.0057 9.86565C53.0057 10.4297 52.8767 10.9937 52.6385 11.5083L50.2567 16.6539C45.9098 14.2196 40.6202 14.1998 36.2535 16.5945ZM57.4319 4.56175C55.6257 1.71189 52.4698 0 49.0955 0H37.4444C31.9761 0 27.5399 4.42322 27.5399 9.87555C27.5399 11.3104 27.8476 12.7254 28.453 14.0217L31.5593 20.7109C30.8546 21.6807 30.2691 22.7296 29.8225 23.8379C29.6439 24.3128 29.8821 24.8472 30.3584 25.0253C30.8249 25.2034 31.3409 24.9758 31.5295 24.5206C31.9761 23.4223 32.5715 22.3932 33.296 21.463C33.296 21.4531 33.3159 21.4432 33.3258 21.4234C34.1396 20.3844 35.1122 19.4839 36.2138 18.7517C36.2138 18.7517 36.2237 18.7517 36.2336 18.7418C42.0393 14.9321 49.8398 16.5252 53.6706 22.314C57.4915 28.1028 55.8937 35.8805 50.0879 39.7001C49.9192 39.8188 49.7406 39.9277 49.562 40.0266H43.2501C42.744 40.0266 42.3271 40.4422 42.3271 40.9469C42.3271 41.4516 42.734 41.8672 43.2501 41.8672H49.8001C49.9589 41.8672 50.1177 41.8276 50.2467 41.7484C57.1838 37.8892 59.6649 29.1517 55.7944 22.2348C55.5265 21.75 55.2287 21.2849 54.9012 20.8396L58.0572 14.0415C59.4863 10.9838 59.2381 7.41161 57.4121 4.57165" fill="#BE0000"></path></g><defs><clipPath id="clip0_6002_469"><rect width="59" height="52" fill="white"></rect></clipPath></defs></svg>