<svg xmlns="http://www.w3.org/2000/svg" width="61" height="50" viewBox="0 0 61 50" fill="none"><g clip-path="url(#clip0_6002_478)"><path d="M58.04 0.320032C57.73 0.0600324 57.33 -0.0499676 56.94 0.0200324C54.81 0.370032 43.53 2.09003 30.16 2.09003C16.79 2.09003 5.50999 0.360032 3.37999 0.0200324C2.98999 -0.0399676 2.58999 0.0700324 2.27999 0.320032C1.97999 0.580032 1.79999 0.950032 1.79999 1.35003V12.07C1.79999 12.56 2.19999 12.95 2.68999 12.95C3.17999 12.95 3.57999 12.56 3.57999 12.07V1.83003C7.14999 2.39003 17.62 3.84003 30.17 3.84003C42.72 3.84003 53.19 2.39003 56.76 1.83003V12.06C56.76 12.55 57.16 12.94 57.65 12.94C58.14 12.94 58.54 12.55 58.54 12.06V1.35003C58.54 0.950032 58.36 0.580032 58.06 0.320032" fill="#BE0000"></path><path d="M57.64 15.27C57.15 15.27 56.75 15.66 56.75 16.15V26.38C53.18 25.82 42.71 24.37 30.16 24.37C17.61 24.37 7.13999 25.82 3.56999 26.38V16.15C3.56999 15.66 3.16999 15.27 2.68999 15.27C2.20999 15.27 1.79999 15.66 1.79999 16.15V26.86C1.79999 27.26 1.97999 27.63 2.27999 27.89C2.52999 28.1 2.83999 28.21 3.15999 28.21C3.22999 28.21 3.30999 28.21 3.37999 28.19C5.50999 27.84 16.8 26.12 30.16 26.12C43.52 26.12 54.81 27.84 56.94 28.19C57.33 28.25 57.74 28.14 58.04 27.89C58.34 27.63 58.52 27.26 58.52 26.86V16.15C58.52 15.66 58.12 15.27 57.63 15.27" fill="#BE0000"></path><path d="M30.16 20.85C20.72 20.85 12.43 21.65 7.11003 22.33V5.88003C12.43 6.56003 20.72 7.36003 30.16 7.36003C39.6 7.36003 47.89 6.56003 53.21 5.88003V22.33C47.89 21.65 39.6 20.85 30.16 20.85ZM54.4 4.53003C54.03 4.21003 53.55 4.06003 53.06 4.12003C47.8 4.79003 39.55 5.60003 30.16 5.60003C20.77 5.60003 12.52 4.80003 7.26003 4.12003C6.78003 4.06003 6.29003 4.21003 5.92003 4.53003C5.55003 4.85003 5.34003 5.31003 5.34003 5.80003V22.41C5.34003 22.9 5.55003 23.36 5.92003 23.68C6.23003 23.95 6.63003 24.1 7.04003 24.1C7.11003 24.1 7.19003 24.1 7.26003 24.09C12.52 23.42 20.77 22.61 30.16 22.61C39.55 22.61 47.8 23.41 53.06 24.09C53.54 24.15 54.03 24.01 54.4 23.68C54.77 23.36 54.98 22.9 54.98 22.41V5.80003C54.98 5.31003 54.77 4.85003 54.4 4.53003Z" fill="#BE0000"></path><path d="M58.56 48.17H1.77V46.87H58.56V48.17ZM4.16 40.6C4.16 39.47 5.09 38.55 6.22 38.55H11.07C12.21 38.55 13.13 39.47 13.13 40.6V45.12H4.16V40.6ZM9.56 34.35C9.56 33.22 10.49 32.3 11.62 32.3H16.47C17.61 32.3 18.53 33.22 18.53 34.35V36.79H16.96C16.89 36.79 16.82 36.79 16.76 36.79C16.72 36.79 16.69 36.79 16.65 36.79C16.62 36.79 16.59 36.79 16.56 36.79C16.51 36.79 16.46 36.8 16.4 36.81C16.39 36.81 16.38 36.81 16.37 36.81C15.43 36.95 14.61 37.42 14.03 38.11C13.33 37.28 12.27 36.76 11.09 36.76H9.55V34.32L9.56 34.35ZM19.43 38.55H21.83C22.97 38.55 23.89 39.47 23.89 40.6V45.12H14.91V40.6C14.91 40.54 14.91 40.48 14.91 40.42C14.99 39.51 15.69 38.76 16.57 38.59C16.59 38.59 16.61 38.59 16.62 38.59C16.67 38.59 16.71 38.57 16.76 38.57C16.83 38.57 16.89 38.56 16.96 38.56H19.41L19.43 38.55ZM20.31 34.35C20.31 33.22 21.24 32.3 22.37 32.3H27.22C28.36 32.3 29.28 33.22 29.28 34.35V36.79H27.71C27.64 36.79 27.57 36.79 27.5 36.79C27.46 36.79 27.43 36.79 27.39 36.79C27.36 36.79 27.33 36.79 27.3 36.79C27.25 36.79 27.2 36.8 27.14 36.81C27.14 36.81 27.12 36.81 27.11 36.81C26.17 36.95 25.35 37.42 24.76 38.11C24.06 37.28 23 36.76 21.82 36.76H20.28V34.32L20.31 34.35ZM30.18 38.55H32.58C32.65 38.55 32.72 38.55 32.79 38.56C32.82 38.56 32.85 38.56 32.88 38.57C32.91 38.57 32.95 38.57 32.98 38.59C33.02 38.59 33.06 38.61 33.1 38.62C33.12 38.62 33.15 38.63 33.17 38.64C33.21 38.65 33.26 38.67 33.3 38.68C33.32 38.68 33.34 38.69 33.35 38.7C33.4 38.72 33.44 38.74 33.48 38.76C33.49 38.76 33.51 38.77 33.52 38.78C33.56 38.8 33.61 38.83 33.65 38.85C33.66 38.85 33.68 38.86 33.69 38.87C33.73 38.9 33.77 38.93 33.81 38.95C33.82 38.95 33.84 38.97 33.85 38.98C33.89 39.01 33.92 39.04 33.96 39.07C33.97 39.08 33.98 39.09 34 39.11C34.03 39.14 34.06 39.17 34.1 39.21C34.11 39.22 34.13 39.24 34.14 39.25C34.17 39.28 34.2 39.32 34.22 39.35C34.23 39.37 34.25 39.38 34.26 39.4C34.29 39.43 34.31 39.47 34.33 39.5C34.34 39.52 34.35 39.54 34.37 39.56C34.39 39.59 34.41 39.63 34.43 39.67C34.44 39.69 34.45 39.71 34.46 39.74C34.48 39.78 34.49 39.81 34.51 39.85C34.52 39.88 34.53 39.9 34.54 39.92C34.55 39.96 34.57 39.99 34.58 40.03C34.58 40.05 34.59 40.08 34.6 40.11C34.61 40.15 34.62 40.19 34.63 40.23C34.63 40.26 34.63 40.28 34.64 40.31C34.64 40.35 34.65 40.39 34.66 40.43C34.66 40.48 34.66 40.54 34.66 40.6V45.12H25.68V40.6C25.68 40.54 25.68 40.48 25.68 40.42C25.76 39.51 26.46 38.76 27.34 38.59C27.36 38.59 27.38 38.59 27.39 38.59C27.44 38.59 27.48 38.58 27.53 38.57C27.6 38.57 27.66 38.56 27.73 38.56H30.18V38.55ZM33.13 32.3H37.98C39.12 32.3 40.04 33.22 40.04 34.35V36.79H38.47C38.4 36.79 38.33 36.79 38.26 36.79C38.24 36.79 38.22 36.79 38.21 36.79C38.16 36.79 38.11 36.79 38.06 36.8C38.04 36.8 38.02 36.8 38 36.8C37.95 36.8 37.9 36.81 37.85 36.82C37.83 36.82 37.82 36.82 37.8 36.82C37.75 36.83 37.69 36.84 37.64 36.85C37.63 36.85 37.62 36.85 37.61 36.85C37.55 36.86 37.49 36.88 37.43 36.9C36.68 37.11 36.03 37.55 35.55 38.13C35.07 37.55 34.41 37.12 33.67 36.9C33.61 36.88 33.55 36.87 33.49 36.85C33.48 36.85 33.47 36.85 33.46 36.85C33.41 36.84 33.35 36.83 33.3 36.82C33.28 36.82 33.27 36.82 33.25 36.82C33.2 36.82 33.15 36.8 33.1 36.8C33.08 36.8 33.06 36.8 33.04 36.8C32.99 36.8 32.94 36.8 32.89 36.79C32.87 36.79 32.85 36.79 32.83 36.79C32.76 36.79 32.69 36.79 32.62 36.79H31.1V34.35C31.1 33.22 32.03 32.3 33.16 32.3M40.93 38.55H43.33C43.4 38.55 43.47 38.55 43.54 38.56C43.57 38.56 43.6 38.56 43.64 38.57C43.67 38.57 43.71 38.57 43.74 38.59C43.78 38.59 43.82 38.61 43.86 38.62C43.88 38.62 43.91 38.63 43.93 38.64C43.97 38.65 44.02 38.67 44.06 38.68C44.08 38.68 44.1 38.69 44.11 38.7C44.15 38.72 44.2 38.74 44.24 38.76C44.25 38.76 44.27 38.77 44.28 38.78C44.32 38.8 44.37 38.83 44.41 38.85C44.42 38.85 44.44 38.86 44.45 38.87C44.49 38.9 44.53 38.93 44.57 38.95C44.58 38.95 44.6 38.97 44.61 38.98C44.65 39.01 44.68 39.04 44.72 39.07C44.73 39.08 44.75 39.09 44.76 39.11C44.79 39.14 44.82 39.17 44.86 39.21C44.87 39.22 44.89 39.24 44.9 39.25C44.93 39.28 44.96 39.32 44.98 39.35C44.99 39.37 45.01 39.38 45.02 39.4C45.05 39.43 45.07 39.47 45.09 39.5L45.13 39.56C45.13 39.56 45.17 39.63 45.19 39.67C45.2 39.69 45.21 39.71 45.22 39.74C45.24 39.78 45.25 39.81 45.27 39.85C45.28 39.88 45.29 39.9 45.3 39.92C45.31 39.96 45.33 39.99 45.34 40.03C45.34 40.05 45.35 40.08 45.36 40.11C45.36 40.15 45.38 40.19 45.39 40.23C45.39 40.26 45.39 40.28 45.4 40.31C45.4 40.35 45.41 40.39 45.42 40.43C45.42 40.48 45.42 40.54 45.42 40.6V45.12H36.44V40.6C36.44 40.54 36.44 40.49 36.44 40.43C36.44 40.39 36.45 40.35 36.46 40.3C36.46 40.28 36.46 40.25 36.47 40.23C36.47 40.19 36.49 40.15 36.5 40.11C36.5 40.09 36.51 40.06 36.52 40.04C36.53 40 36.54 39.96 36.56 39.93C36.56 39.91 36.58 39.88 36.59 39.86C36.6 39.82 36.62 39.79 36.64 39.75C36.65 39.73 36.66 39.71 36.67 39.68C36.69 39.64 36.71 39.61 36.73 39.57C36.74 39.55 36.75 39.53 36.77 39.51C36.79 39.48 36.82 39.44 36.84 39.41C36.85 39.39 36.87 39.38 36.88 39.36C36.91 39.33 36.93 39.29 36.96 39.26C36.97 39.25 36.99 39.23 37 39.22C37.03 39.19 37.06 39.15 37.09 39.12C37.1 39.11 37.12 39.1 37.13 39.08C37.17 39.05 37.2 39.02 37.24 38.99C37.25 38.99 37.27 38.97 37.28 38.96C37.32 38.93 37.36 38.9 37.4 38.88C37.41 38.88 37.43 38.86 37.44 38.85C37.48 38.83 37.52 38.8 37.57 38.78C37.59 38.78 37.6 38.77 37.62 38.76C37.66 38.74 37.71 38.72 37.75 38.7C37.77 38.7 37.79 38.69 37.8 38.68C37.84 38.66 37.88 38.65 37.93 38.64C37.95 38.64 37.98 38.63 38 38.62C38.04 38.62 38.08 38.6 38.12 38.59C38.15 38.59 38.19 38.58 38.22 38.57C38.25 38.57 38.28 38.57 38.31 38.56C38.38 38.56 38.45 38.55 38.51 38.55H40.96H40.93ZM41.81 34.35C41.81 33.22 42.74 32.3 43.87 32.3H48.72C49.86 32.3 50.78 33.22 50.78 34.35V36.79H49.21C49.14 36.79 49.07 36.79 49 36.79C48.98 36.79 48.96 36.79 48.95 36.79C48.9 36.79 48.85 36.79 48.79 36.8C48.77 36.8 48.75 36.8 48.73 36.8C48.68 36.8 48.63 36.81 48.58 36.82C48.56 36.82 48.55 36.82 48.53 36.82C48.48 36.83 48.42 36.84 48.37 36.85C48.36 36.85 48.35 36.85 48.34 36.85C48.28 36.86 48.22 36.88 48.16 36.9C48.16 36.9 48.16 36.9 48.15 36.9C47.4 37.11 46.75 37.55 46.27 38.13C45.79 37.55 45.13 37.12 44.39 36.9C44.39 36.9 44.39 36.9 44.38 36.9C44.32 36.88 44.26 36.87 44.2 36.85C44.19 36.85 44.18 36.85 44.17 36.85C44.11 36.84 44.06 36.83 44 36.82C43.98 36.82 43.97 36.82 43.95 36.82C43.9 36.82 43.85 36.8 43.8 36.8C43.78 36.8 43.76 36.8 43.74 36.8C43.69 36.8 43.64 36.8 43.59 36.79C43.57 36.79 43.55 36.79 43.54 36.79C43.47 36.79 43.4 36.79 43.33 36.79H41.81V34.35ZM51.68 38.55H54.08C55.22 38.55 56.14 39.47 56.14 40.6V45.12H47.16V40.6C47.16 40.54 47.16 40.49 47.16 40.43C47.16 40.39 47.16 40.35 47.18 40.3C47.18 40.28 47.18 40.25 47.19 40.23C47.19 40.19 47.21 40.15 47.22 40.11C47.22 40.09 47.23 40.06 47.24 40.04C47.25 40 47.26 39.96 47.28 39.93C47.28 39.91 47.3 39.88 47.31 39.86C47.33 39.82 47.34 39.79 47.36 39.75L47.39 39.68C47.39 39.68 47.43 39.61 47.45 39.57C47.46 39.55 47.47 39.53 47.49 39.51C47.51 39.48 47.54 39.44 47.56 39.41C47.57 39.39 47.59 39.38 47.6 39.36C47.63 39.33 47.65 39.29 47.68 39.26C47.69 39.25 47.71 39.23 47.72 39.22C47.75 39.19 47.78 39.15 47.81 39.12C47.82 39.11 47.84 39.1 47.85 39.08C47.89 39.05 47.92 39.02 47.96 38.99C47.97 38.99 47.99 38.97 48 38.96C48.04 38.93 48.08 38.9 48.12 38.88C48.13 38.88 48.15 38.86 48.16 38.85C48.2 38.83 48.24 38.8 48.28 38.78C48.3 38.78 48.31 38.77 48.33 38.76C48.37 38.74 48.42 38.72 48.46 38.7C48.48 38.7 48.5 38.69 48.51 38.68C48.55 38.66 48.59 38.65 48.64 38.64C48.66 38.64 48.69 38.63 48.71 38.62C48.75 38.62 48.79 38.6 48.83 38.59C48.86 38.59 48.9 38.58 48.93 38.57C48.96 38.57 48.99 38.57 49.02 38.56C49.09 38.56 49.16 38.55 49.23 38.55H51.68ZM59.22 45.12H57.91V40.6C57.91 38.5 56.19 36.79 54.08 36.79H52.56V34.35C52.56 32.25 50.84 30.54 48.73 30.54H43.88C42.7 30.54 41.64 31.08 40.93 31.92C40.23 31.08 39.16 30.54 37.98 30.54H33.13C31.95 30.54 30.89 31.08 30.18 31.92C29.48 31.08 28.41 30.54 27.23 30.54H22.38C21.2 30.54 20.14 31.08 19.43 31.92C18.73 31.08 17.67 30.54 16.48 30.54H11.63C9.52 30.54 7.8 32.25 7.8 34.35V36.79H6.23C4.12 36.79 2.4 38.5 2.4 40.6V45.12H1.11C0.5 45.12 0 45.61 0 46.22V48.84C0 49.44 0.5 49.94 1.11 49.94H59.23C59.84 49.94 60.33 49.45 60.33 48.84V46.22C60.33 45.62 59.83 45.12 59.23 45.12" fill="#BE0000"></path></g><defs><clipPath id="clip0_6002_478"><rect width="60.33" height="49.93" fill="white"></rect></clipPath></defs></svg>