<svg xmlns="http://www.w3.org/2000/svg" width="59" height="50" viewBox="0 0 59 50" fill="none"><g clip-path="url(#clip0_6002_484)"><path d="M43.85 37.26H57.26V43.6H43.85V37.26ZM43.85 25.74H57.26V32.08H43.85V25.74ZM1.73 41.87H5.8V45.61C5.8 46.09 6.19 46.47 6.66 46.47C7.13 46.47 7.52 46.08 7.52 45.61V41.87H11.55V45.61C11.55 46.09 11.94 46.47 12.42 46.47C12.9 46.47 13.28 46.08 13.28 45.61V41.87H17.31V48.21H1.73V41.87ZM23.66 41.87H29.23V48.21H23.66V41.87ZM36.53 48.21H30.96V41.87H36.53V48.21ZM58.13 17.67C57.65 17.67 57.27 18.06 57.27 18.53V24H42.99C42.51 24 42.13 24.39 42.13 24.86V32.93C42.13 33.41 42.52 33.79 42.99 33.79H57.27V35.52H42.99C42.51 35.52 42.13 35.91 42.13 36.38V44.45C42.13 44.93 42.52 45.31 42.99 45.31H57.27V48.19H38.26V40.99C38.26 40.51 37.87 40.13 37.4 40.13H22.8C22.32 40.13 21.94 40.52 21.94 40.99V48.19H19.06V40.99C19.06 40.51 18.67 40.13 18.2 40.13H1.73V39.21C1.73 38.73 1.34 38.35 0.87 38.35C0.4 38.35 0 38.74 0 39.22V49.07C0 49.55 0.39 49.93 0.86 49.93H58.13C58.61 49.93 58.99 49.54 58.99 49.07V18.53C58.99 18.05 58.6 17.67 58.13 17.67Z" fill="#BE0000"></path><path d="M2.88 28.04V25.16H22.47C20.14 26.92 17.33 28.04 13.57 28.04H2.88ZM2.88 20.55H26.92C26.13 21.57 25.31 22.55 24.43 23.43H2.88V20.55ZM2.88 15.94H10.45C10.93 15.94 11.31 15.55 11.31 15.08C11.31 14.61 10.92 14.22 10.45 14.22H2.88V11.34H33.89C33.05 12.25 32.26 13.22 31.51 14.22H13.91C13.43 14.22 13.05 14.61 13.05 15.08C13.05 15.55 13.44 15.94 13.91 15.94H30.25C29.96 16.35 29.67 16.76 29.38 17.17C28.99 17.72 28.6 18.27 28.21 18.82H2.88V15.94ZM58.74 5.82001C58.58 5.66001 58.36 5.57001 58.13 5.57001H46.61C41.83 5.57001 38.42 7.21001 35.67 9.60001H18.29C19.17 7.50001 20.61 5.64001 22.44 4.27001C24.66 2.61001 27.31 1.73001 30.09 1.73001C33.47 1.73001 36.66 3.04001 39.07 5.42001C39.41 5.76001 39.96 5.75001 40.29 5.42001C40.63 5.08001 40.62 4.53001 40.29 4.20001C37.56 1.50001 33.94 0.0100098 30.1 0.0100098C26.94 0.0100098 23.93 1.01001 21.41 2.90001C19.14 4.60001 17.4 6.97001 16.44 9.62001H0.86C0.38 9.62001 0 10.01 0 10.48C0 10.95 0.39 11.34 0.86 11.34H1.15V14.22H0.86C0.38 14.22 0 14.61 0 15.08C0 15.55 0.39 15.94 0.86 15.94H1.15V18.82H0.86C0.38 18.82 0 19.21 0 19.68C0 20.15 0.39 20.54 0.86 20.54H1.15V23.42H0.86C0.38 23.42 0 23.81 0 24.28C0 24.75 0.39 25.14 0.86 25.14H1.15V28.02H0.86C0.38 28.02 0 28.41 0 28.88V35.74C0 36.22 0.39 36.6 0.86 36.6C1.33 36.6 1.72 36.21 1.72 35.74V29.74H13.57C22.61 29.74 26.77 23.84 30.79 18.14C34.73 12.55 38.46 7.27001 46.61 7.27001H57.27V15.05C57.27 15.53 57.66 15.91 58.13 15.91C58.6 15.91 58.99 15.52 58.99 15.05V6.43001C58.99 6.20001 58.9 5.98001 58.74 5.82001Z" fill="#BE0000"></path><path d="M53.47 14.21V19.11C53.47 19.18 53.47 19.24 53.49 19.31L53.78 20.55H44.08L44.37 19.31C44.39 19.25 44.39 19.18 44.39 19.11V14.21H46.33V14.5C46.33 14.98 46.72 15.36 47.19 15.36C47.66 15.36 48.05 14.97 48.05 14.5V14.21H49.78V14.5C49.78 14.98 50.17 15.36 50.64 15.36C51.11 15.36 51.5 14.97 51.5 14.5V14.21H53.44H53.47ZM48.06 11.1C48.06 10.61 48.43 10.2 48.88 10.18C49.12 10.18 49.35 10.25 49.52 10.42C49.69 10.59 49.79 10.81 49.79 11.04V12.48H48.06V11.09V11.1ZM50.72 9.16997C50.2 8.67997 49.53 8.41997 48.81 8.44997C47.42 8.50997 46.33 9.66997 46.33 11.09V12.48H43.52C43.04 12.48 42.66 12.87 42.66 13.34V19L42.14 21.21C42.08 21.47 42.14 21.74 42.3 21.94C42.46 22.15 42.71 22.27 42.98 22.27H54.86C55.12 22.27 55.37 22.15 55.54 21.94C55.7 21.73 55.76 21.46 55.7 21.21L55.18 19V13.34C55.18 12.86 54.79 12.48 54.32 12.48H51.51V11.04C51.51 10.34 51.22 9.64997 50.71 9.16997" fill="#BE0000"></path><path d="M30.93 38.76C31.41 38.76 31.79 38.37 31.79 37.9C31.79 37.43 31.4 37.04 30.93 37.04H29.25C28.77 37.04 28.39 37.43 28.39 37.9C28.39 38.37 28.78 38.76 29.25 38.76H30.93Z" fill="#BE0000"></path></g><defs><clipPath id="clip0_6002_484"><rect width="59" height="49.93" fill="white"></rect></clipPath></defs></svg>