<svg xmlns="http://www.w3.org/2000/svg" width="82" height="52" viewBox="0 0 82 52" fill="none"><path d="M71.0504 25.4742C70.8156 25.7068 70.489 25.8483 70.1317 25.8483H68.0494C67.6207 25.8483 67.2635 26.1921 67.2635 26.6269V44.453H64.6708V24.5642C64.6708 24.2103 64.8137 23.8868 65.0485 23.6542C65.2832 23.4216 65.6099 23.2801 65.9671 23.2801H70.1215C70.4788 23.2801 70.8054 23.4216 71.0402 23.6542C71.275 23.8868 71.4179 24.2103 71.4179 24.5642C71.4179 24.9181 71.275 25.2417 71.0402 25.4742M64.681 11.8544C64.681 11.5005 64.8239 11.1769 65.0587 10.9444C65.2935 10.7118 65.6201 10.5703 65.9773 10.5703C66.3346 10.5703 66.6612 10.7118 66.896 10.9444C66.9062 10.9444 66.9164 10.9646 66.9266 10.9747C67.141 11.2073 67.2737 11.5106 67.2737 11.8544V21.7331H65.9773C65.5078 21.7331 65.0689 21.8443 64.681 22.0465V11.8544ZM63.1193 15.2012C61.6188 14.4732 60.0877 13.816 58.5056 13.2295C58.4647 13.2093 58.4239 13.1992 58.3831 13.179C56.6274 12.542 54.8309 11.9858 52.9936 11.541C52.8915 11.5207 52.7895 11.4904 52.6874 11.4702C52.6466 11.4601 52.6057 11.4499 52.5649 11.4398C50.697 11.0051 48.7882 10.6714 46.8488 10.4489C46.8182 10.4489 46.7876 10.4489 46.7569 10.4489C44.8584 10.2366 42.9394 10.1254 40.9796 10.1254C39.0198 10.1254 37.1008 10.2366 35.2022 10.4489C35.1716 10.4489 35.141 10.4489 35.1206 10.4489C33.1812 10.6714 31.2724 11.0051 29.4045 11.4398C29.3636 11.4398 29.3228 11.4601 29.282 11.4702C29.1799 11.4904 29.0778 11.5207 28.9758 11.541C27.1384 11.9858 25.3419 12.5319 23.5863 13.179C23.5455 13.1891 23.5046 13.2093 23.4638 13.2295C21.8919 13.816 20.3506 14.4732 18.8501 15.2012V12.3498C22.1879 10.8231 25.7196 9.62993 29.384 8.81092C33.0995 7.9818 36.9783 7.54702 40.9694 7.54702C44.9604 7.54702 48.8392 7.9818 52.5547 8.81092C56.2191 9.61982 59.7509 10.8129 63.0887 12.3498V15.2012H63.1193ZM63.1193 25.8483H58.9547V15.0495C60.3735 15.6057 61.7617 16.2326 63.1193 16.9201V25.8483ZM53.2284 25.8483V13.1992C54.6472 13.5632 56.0252 13.9879 57.393 14.4732V25.8483H53.2284ZM47.5021 25.8483V12.0971C48.9107 12.2791 50.2989 12.5319 51.6667 12.8352V25.8584H47.5021V25.8483ZM41.7758 25.8483V11.6724C43.1844 11.6926 44.5624 11.7735 45.9403 11.9151V25.8483H41.7758ZM36.0596 25.8483V11.9151C37.4274 11.7735 38.8156 11.7027 40.2242 11.6724V25.8483H36.0596ZM30.3333 25.8483V12.8251C31.7011 12.5217 33.0893 12.2791 34.4979 12.087V25.8483H30.3333ZM24.607 25.8483V14.4732C25.9646 13.9879 27.3528 13.5632 28.7716 13.1992V25.8483H24.607ZM63.1193 29.9636H18.8807V27.3953H63.1193V29.9636ZM63.1193 32.5622H18.8807V31.5207H63.1193V32.5622ZM63.1193 36.6775H18.8807V34.1092H63.1193V36.6775ZM18.8807 16.9201C20.2383 16.2326 21.6265 15.6057 23.0453 15.0495V25.8483H18.8807V16.9201ZM17.319 22.0465C16.9311 21.8443 16.4922 21.7331 16.0226 21.7331H14.7263V11.8544C14.7263 11.5005 14.8692 11.1769 15.104 10.9444C15.3388 10.7118 15.6654 10.5703 16.0226 10.5703C16.3799 10.5703 16.7065 10.7118 16.9413 10.9444C17.1761 11.1769 17.319 11.5005 17.319 11.8544V22.0364V22.0465ZM17.319 44.453H14.7263V26.6269C14.7263 26.2022 14.3793 25.8483 13.9404 25.8483H11.8581C11.5008 25.8483 11.1742 25.7068 10.9394 25.4742C10.7046 25.2417 10.5617 24.9181 10.5617 24.5642C10.5617 24.2103 10.7046 23.8868 10.9394 23.6542C11.1742 23.4216 11.5008 23.2801 11.8581 23.2801H16.0124C16.3697 23.2801 16.6963 23.4216 16.9311 23.6542C17.1659 23.8868 17.3088 24.2103 17.3088 24.5642V44.453H17.319ZM72.1528 22.5622C71.6322 22.0465 70.9177 21.7331 70.1317 21.7331H68.8354V11.8544C68.8354 11.0961 68.5292 10.4085 68.0392 9.90293C68.029 9.88271 68.0086 9.8726 67.9882 9.85238C67.4676 9.3367 66.7531 9.02326 65.9671 9.02326C65.1812 9.02326 64.4667 9.34681 63.9461 9.85238C63.6909 10.1052 63.4766 10.4085 63.3336 10.7523C60.0265 9.27604 56.5356 8.11325 52.912 7.30435C49.0638 6.45501 45.0727 6 40.9898 6C36.9069 6 32.9158 6.45501 29.0676 7.30435C25.4338 8.11325 21.9531 9.27604 18.6459 10.7523C18.503 10.4186 18.2887 10.1153 18.0335 9.85238C17.5129 9.3367 16.7984 9.02326 16.0124 9.02326C15.2265 9.02326 14.512 9.34681 13.9914 9.85238C13.4708 10.368 13.1544 11.0758 13.1544 11.8544V21.7331H11.8581C11.0721 21.7331 10.3576 22.0566 9.837 22.5622C9.31643 23.0779 9 23.7856 9 24.5642C9 25.3428 9.32663 26.0506 9.837 26.5662C10.3576 27.0819 11.0721 27.3953 11.8581 27.3953H13.1544V45.2214C13.1544 45.6461 13.5014 46 13.9404 46H18.0947C18.5234 46 18.8807 45.6562 18.8807 45.2214V38.2245H63.1193V45.2214C63.1193 45.6461 63.4663 46 63.9053 46H68.0596C68.4884 46 68.8456 45.6562 68.8456 45.2214V27.3953H70.1419C70.9279 27.3953 71.6424 27.0718 72.163 26.5662C72.6836 26.0506 73 25.3428 73 24.5642C73 23.7856 72.6734 23.0779 72.163 22.5622" fill="#BE0000"></path></svg>