<svg xmlns="http://www.w3.org/2000/svg" width="57" height="52" viewBox="0 0 57 52" fill="none"><g clip-path="url(#clip0_6002_450)"><path d="M42.3934 50.175V44.1066C42.3934 38.2799 33.5145 38.2689 33.5145 44.1066V50.175H31.2698C31.2698 37.7742 31.2698 30.1666 31.2698 28.9683C39.9055 29.419 41.2103 34.3662 42.4929 38.0381C44.0078 42.3915 46.0755 48.2841 53.7823 48.7239V50.175H42.3934ZM15.0599 44.8321V50.175H11.4221V35.0038H29.4454V50.175H25.8076V44.8321C25.8076 37.7852 15.071 37.7852 15.071 44.8321M1.8355 47.8224H3.62677C4.1354 47.8224 4.54452 47.4156 4.54452 46.9099V43.6448H6.33579C6.84442 43.6448 7.25354 43.2381 7.25354 42.7323V39.4672H9.55344V50.186H1.8355V47.8334V47.8224ZM13.6446 16.3256H11.4221V11.7522H13.6446V16.3256ZM18.1891 2.55053C19.516 1.57209 21.3183 1.57209 22.6452 2.55053L32.5967 9.92727H8.24869L18.2002 2.55053H18.1891ZM29.4343 16.3256H27.2118V11.7522H29.4343V16.3256ZM29.4233 33.1789H11.4111V18.1615H29.4233V33.1789ZM25.3653 16.3256H15.4801V11.7522H25.3653V16.3256ZM45.1245 37.1256C46.7057 41.677 48.1984 45.9865 54.7001 45.9865C55.3304 45.9865 55.3304 46.9319 54.7001 46.9319C47.535 46.9319 45.7769 41.8858 44.2068 37.3564C42.9241 33.6956 41.2435 27.6051 31.2698 27.1214V26.1759C41.9622 26.6706 43.8419 33.3987 45.1245 37.1256ZM54.689 44.1615C49.5032 44.1615 48.4528 41.1273 46.8605 36.5319C45.5558 32.7611 43.3001 24.8677 31.2698 24.351C31.2698 12.7197 31.2698 21.4706 31.2698 11.7522H35.3721C35.8807 11.7522 36.2898 11.3345 36.2898 10.8397C36.2898 10.5539 36.1571 10.2791 35.9249 10.1142L23.7509 1.08837C21.7717 -0.362791 19.0737 -0.362791 17.0945 1.08837L4.92046 10.1142C4.51135 10.422 4.43395 10.9937 4.73249 11.4004C4.90941 11.6313 5.17478 11.7632 5.46227 11.7632H9.5645C9.5645 28.4186 9.5645 36.8507 9.5645 37.6313H6.33579C5.82716 37.6313 5.41804 38.0381 5.41804 38.5438V41.8089H3.62677C3.11814 41.8089 2.70902 42.2156 2.70902 42.7214V45.9865H0.91775C0.409117 45.9865 0 46.3932 0 46.8989V51.0765C0 51.5822 0.409117 51.989 0.91775 51.989H15.9777C16.4863 51.989 16.8954 51.5822 16.8954 51.0765V44.8211C16.8954 40.1818 23.9499 40.1818 23.9499 44.8211V51.0765C23.9499 51.5822 24.3591 51.989 24.8677 51.989H34.4322C34.9408 51.989 35.3499 51.5822 35.3499 51.0765V44.0956C35.3499 40.6765 40.5468 40.6765 40.5468 44.0956V50.9886C40.5468 50.9886 40.5468 51.0545 40.5468 51.0875C40.5468 51.5932 40.956 52 41.4646 52H54.689C55.1977 52 55.6068 51.5932 55.6068 51.0875V48.57C57.9067 47.5805 57.188 44.1615 54.689 44.1615ZM20.4227 21.6685C22.6452 21.6685 24.4475 23.4605 24.4475 25.6702C24.4475 27.8799 22.6452 29.6719 20.4227 29.6719C18.2002 29.6719 16.3979 27.8799 16.3979 25.6702C16.3979 23.4605 18.2002 21.6685 20.4227 21.6685ZM20.4227 31.4968C23.6625 31.4968 26.283 28.8913 26.283 25.6702C26.283 22.449 23.6625 19.8435 20.4227 19.8435C17.1829 19.8435 14.5624 22.449 14.5624 25.6702C14.5624 28.8913 17.194 31.4968 20.4227 31.4968Z" fill="#BE0000"></path></g><defs><clipPath id="clip0_6002_450"><rect width="57" height="52" fill="white"></rect></clipPath></defs></svg>