<svg xmlns="http://www.w3.org/2000/svg" width="239" height="44" viewBox="0 0 239 44" fill="none"><g clip-path="url(#clip0_4_1571)"><mask id="mask0_4_1571" style="mask-type:luminance" maskUnits="userSpaceOnUse" x="0" y="0" width="239" height="44"><path d="M238.582 0.833862H0.770996V43.9958H238.582V0.833862Z" fill="white"></path></mask><g mask="url(#mask0_4_1571)"><path d="M94.3351 43.8575L75.7921 25.03C72.0742 21.2646 67.2737 19.0052 62.0496 18.5345L53.4841 9.82688C48.2601 4.46105 41.1064 1.49573 33.6704 1.49573H14.7981C16.6806 4.46105 19.9279 6.2026 23.4107 6.2026H33.7175C39.9299 6.2026 45.8599 8.69723 50.2367 13.1688L55.4608 18.4876H26.0462C27.9287 21.4528 31.1761 23.1944 34.6588 23.1944H60.1671C64.8264 23.1944 69.2503 25.03 72.5448 28.419L83.1811 39.1978H40.5888C34.6588 39.1978 29.1995 36.1853 25.952 31.1961L9.71523 6.2026C7.83269 3.28434 4.63239 1.5428 1.19676 1.5428H0.773193L21.6222 33.7377C25.7167 40.092 32.6351 43.9046 40.1181 43.9046H94.3351V43.8575Z" fill="black"></path><path d="M164.506 2.95411C164.506 3.04825 164.506 11.7089 164.506 11.7089C164.506 15.5685 167.424 15.5685 168.506 15.5685H188.602V13.6858C188.602 13.6858 186.86 13.6858 185.165 13.4505C183.566 13.168 182.295 11.9442 182.295 10.2968C182.295 8.64941 183.706 7.14322 185.448 7.14322C187.189 7.14322 186.484 7.28442 186.907 7.51976L187.566 6.67253C187.566 6.62546 187.472 6.57839 187.425 6.53132C186.343 5.63702 184.836 5.30754 183.706 5.30754C179.848 5.30754 178.389 8.88475 178.389 10.3439C178.389 11.803 178.718 12.8385 179.33 13.6387H170.2C169.023 13.6387 168.458 12.9798 168.458 11.6618V1.02429H163.093V2.0598C163.093 2.0598 164.27 2.0598 164.458 2.95411H164.506Z" fill="black"></path><path d="M183.426 4.03685C184.32 4.03685 185.025 3.33082 185.025 2.43652C185.025 1.54221 184.32 0.836182 183.426 0.836182C182.532 0.836182 181.825 1.54221 181.825 2.43652C181.825 3.33082 182.532 4.03685 183.426 4.03685Z" fill="black"></path><path d="M194.957 11.1896V12.2721C194.957 13.3548 194.957 14.7197 194.957 14.8139C194.957 17.4027 195.099 20.8858 203.428 20.8858C211.759 20.8858 211.194 17.5438 211.194 14.8139C211.194 14.8139 211.9 15.614 213.594 15.614H233.549C234.631 15.614 237.549 15.2846 237.549 11.8015V4.50586H232.137V5.54137C232.137 5.54137 233.502 5.54137 233.502 6.67102V11.8015C233.502 13.0723 233.032 13.6842 231.855 13.6842H213.547C212.323 13.6842 211.147 12.6959 211.147 11.472V5.11776H205.735V6.15327C205.735 6.15327 206.112 6.15327 206.487 6.34154C206.817 6.48274 207.1 6.76515 207.1 7.28291V11.6603C207.1 15.6611 207.24 19.4267 203.288 19.4267C199.334 19.4267 198.863 16.0377 198.863 12.3192V11.7544V9.11859H193.451V10.1541C193.451 10.1541 194.816 10.1541 194.816 11.2837L194.957 11.1896Z" fill="black"></path><path d="M212.417 42.4928C211.994 42.3986 211.335 42.1633 211.335 41.4102V30.6786C211.335 30.4432 211.383 30.255 211.477 30.1137H214.065C214.677 30.2079 214.96 31.5728 215.289 31.9966L216.089 31.6199L215.383 28.2781C215.289 28.2781 214.159 28.5605 213.876 28.5605H204.653C204.322 28.5605 202.676 28.3723 202.582 28.3252L201.969 31.6199L202.769 31.9966C203.099 31.5728 203.382 30.1608 203.993 30.1137H207.052C207.146 30.255 207.194 30.4432 207.194 30.6786V41.4102C207.194 42.1633 206.582 42.3986 206.158 42.4928V43.6224H212.277V42.5399L212.417 42.4928Z" fill="black"></path><path d="M226.771 42.4928C226.347 42.3986 225.689 42.1633 225.689 41.4102V30.6786C225.689 30.4432 225.736 30.255 225.83 30.1137H228.888C229.501 30.2079 229.782 31.5728 230.112 31.9966L230.912 31.6199L230.207 28.2781C230.112 28.2781 228.513 28.5605 228.23 28.5605H219.006C218.675 28.5605 217.5 28.3723 217.406 28.3252L216.793 31.6199L217.593 31.9966C217.923 31.5728 218.206 30.1608 218.817 30.1137H221.406C221.499 30.255 221.547 30.4432 221.547 30.6786V41.4102C221.547 42.1633 220.935 42.3986 220.511 42.4928V43.6224H226.63V42.5399L226.771 42.4928Z" fill="black"></path><path d="M202.863 10.8142C203.758 10.8142 204.464 10.1082 204.464 9.21386C204.464 8.31956 203.758 7.61353 202.863 7.61353C201.969 7.61353 201.264 8.31956 201.264 9.21386C201.264 10.1082 201.969 10.8142 202.863 10.8142Z" fill="black"></path><path d="M238.583 42.4456C238.159 42.3514 237.594 42.1161 237.594 41.3629V30.6313C237.594 29.9253 238.206 29.6429 238.583 29.5487V28.4662H232.511V29.5487C232.935 29.6429 233.593 29.8782 233.593 30.6313V41.3629C233.593 42.1161 232.935 42.3514 232.511 42.4456V43.5281H238.583V42.4456Z" fill="black"></path><path d="M236.748 18.2048C236.748 17.3105 236.042 16.6045 235.147 16.6045C234.253 16.6045 233.547 17.3105 233.547 18.2048C233.547 19.0992 234.253 19.8052 235.147 19.8052C236.042 19.8052 236.748 19.0992 236.748 18.2048Z" fill="black"></path><path d="M119.184 21.7816C118.29 21.7816 117.584 22.4876 117.584 23.3819C117.584 24.2763 118.29 24.9823 119.184 24.9823C120.078 24.9823 120.784 24.2763 120.784 23.3819C120.784 22.4876 120.078 21.7816 119.184 21.7816Z" fill="black"></path><path d="M187.615 42.6803C187.145 42.5862 186.486 42.2568 186.486 41.4095V30.6779C186.486 29.5952 187.85 29.5481 187.85 29.5481V28.5127H181.074V29.5481C181.074 29.5481 182.439 29.5481 182.439 30.6779V35.1022H176.649V30.6779C176.649 29.5952 178.014 29.5481 178.014 29.5481V28.5127H171.614V29.5952C172.037 29.6894 172.649 29.9247 172.649 30.6779V41.4095C172.649 42.1626 172.037 42.3979 171.614 42.4921V43.5746H177.638V42.4921C177.214 42.3979 176.649 42.1626 176.649 41.4565V37.0791H182.439V41.5036C182.439 42.2097 181.874 42.4921 181.45 42.5391V43.6688H187.569V42.7744L187.615 42.6803Z" fill="black"></path><path d="M169.874 36.9853H164.274V38.0679C164.697 38.1621 165.262 38.3974 165.262 39.1034V42.2099C164.885 42.3041 164.414 42.3982 163.945 42.3982C160.696 42.3982 158.626 39.527 158.626 35.9498C158.626 32.3726 160.744 29.5014 163.945 29.5014C167.144 29.5014 167.568 31.243 168.086 32.0902L168.933 31.8548L168.321 28.4188H167.286C166.486 28.5601 164.933 28.1365 163.52 28.1365C158.532 28.1365 154.484 31.6195 154.484 35.9498C154.484 40.2801 158.532 43.7633 163.52 43.7633C168.509 43.7633 167.474 43.1513 168.98 42.1628V39.0092C168.98 38.3032 169.545 38.0679 169.968 37.9738V36.8912L169.874 36.9853Z" fill="black"></path><path d="M113.16 11.097V13.4974C113.16 15.8039 113.725 17.0747 114.808 18.3455C115.984 19.7106 118.196 20.4166 120.455 20.4166C122.949 20.4166 129.068 20.9344 129.068 15.5214V13.6858H127.045C125.538 13.6858 124.785 12.8856 124.785 10.9087C124.785 8.93182 125.773 7.04908 127.797 7.04908H130.056V11.9913C130.056 15.5214 132.785 15.5685 133.868 15.5685H161.354V9.73199C161.354 8.367 161.353 4.78978 155.564 5.35461C151.564 5.73115 148.505 9.68492 147.799 10.9558V2.01274V1.02429H142.387V2.0598C142.387 2.0598 143.752 2.0598 143.752 3.14238V13.6858H135.563C134.386 13.6858 133.821 13.0267 133.821 11.7089V5.40168H127.514C125.256 5.40168 120.879 7.14322 120.879 11.2853C120.879 15.4272 124.173 15.0978 125.396 15.0978C125.396 16.7452 124.785 18.7692 120.361 18.7692C115.937 18.7692 117.114 16.3216 117.114 13.3563V8.97889H111.701V10.0144C111.701 10.0144 112.972 10.0144 113.066 11.0028L113.16 11.097ZM155.424 7.42563C157.352 7.42563 157.306 9.26131 157.306 10.2027V13.7328H147.846C148.175 12.6973 151.941 7.42563 155.47 7.42563H155.424Z" fill="black"></path><path d="M153.024 28.5131H148.318V29.5487C148.318 29.5487 149.683 29.5487 149.683 30.6783V37.2208L138.716 27.9484V41.41C138.716 42.116 138.151 42.3984 137.728 42.4454V43.528H142.388V42.4925C142.388 42.4925 141.023 42.4925 141.023 41.3629V35.0557L151.988 43.9987V30.6783C151.988 29.9722 152.6 29.6898 152.976 29.5957V28.5131H153.024Z" fill="black"></path><path d="M202.768 41.7859L196.932 28.8892C196.839 28.6539 196.603 28.5127 196.321 28.5127C196.038 28.5127 195.803 28.6539 195.709 28.9363L190.062 41.4095C189.827 41.9743 189.356 42.4921 188.743 42.6803V43.6217H192.791V42.5862H192.697C192.32 42.5862 191.803 42.1155 192.086 41.5506L192.791 39.9032H198.11L198.816 41.5977C199.05 42.1626 198.627 42.4921 198.156 42.5862V43.6688H204.087V42.6332C204.087 42.6332 203.239 42.7744 202.768 41.8801V41.7859ZM193.591 37.9264L195.427 33.5961L197.262 37.9264H193.591Z" fill="black"></path><path d="M135.28 42.4456C134.857 42.3514 134.292 42.1161 134.292 41.3629V30.6313C134.292 29.9253 134.903 29.6429 135.28 29.5488V28.4662H129.302V29.5488C129.726 29.6429 130.291 29.8782 130.291 30.5843V41.316C130.291 42.022 129.726 42.2573 129.302 42.3514V43.434H135.28V42.3514V42.4456Z" fill="black"></path><path d="M122.713 35.1487C124.172 35.1487 126.149 34.3485 126.149 32.1363C126.149 29.9242 123.09 28.5591 120.172 28.5591H112.124V29.6417C112.548 29.7358 113.112 29.9711 113.112 30.6771V41.4089C113.112 42.1149 112.548 42.3502 112.124 42.4444V43.5269H120.172C123.937 43.5269 126.996 42.4914 126.996 39.2908C126.996 36.0901 125.301 35.9018 122.713 35.1487ZM117.113 30.6771C117.113 29.83 117.96 29.6417 118.336 29.5946C121.395 29.2181 122.478 30.8184 122.478 32.1834C122.478 33.5484 121.443 34.7721 117.96 34.7721H117.113V30.7242V30.6771ZM118.383 42.4914C118.054 42.4914 117.113 42.3031 117.113 41.4089V36.043C121.631 36.043 123.137 37.361 123.137 39.1495C123.137 40.9382 121.584 42.8209 118.383 42.5385V42.4914Z" fill="black"></path><path d="M121.632 23.3819C121.632 24.2763 122.338 24.9823 123.232 24.9823C124.126 24.9823 124.832 24.2763 124.832 23.3819C124.832 22.4876 124.126 21.7816 123.232 21.7816C122.338 21.7816 121.632 22.4876 121.632 23.3819Z" fill="black"></path></g></g><defs><clipPath id="clip0_4_1571"><rect width="239" height="44" fill="white"></rect></clipPath></defs></svg>