<svg xmlns="http://www.w3.org/2000/svg" width="239" height="44" viewBox="0 0 239 44" fill="none"><g clip-path="url(#clip0_69_47)"><mask id="mask0_69_47" style="mask-type:luminance" maskUnits="userSpaceOnUse" x="0" y="0" width="239" height="44"><path d="M238.582 0.833828H0.771027V43.9958H238.582V0.833828Z" fill="white"></path></mask><g mask="url(#mask0_69_47)"><path d="M94.3352 43.8575L75.7923 25.0301C72.0743 21.2646 67.2739 19.0053 62.0498 18.5346L53.4843 9.82693C48.2603 4.4611 41.1066 1.49578 33.6706 1.49578H14.7983C16.6808 4.4611 19.9281 6.20265 23.4108 6.20265H33.7177C39.93 6.20265 45.8601 8.69728 50.2369 13.1688L55.461 18.4876H26.0464C27.9289 21.4529 31.1763 23.1944 34.6589 23.1944H60.1672C64.8266 23.1944 69.2504 25.0301 72.5449 28.419L83.1813 39.1978H40.589C34.6589 39.1978 29.1996 36.1854 25.9522 31.1961L9.71538 6.20265C7.83285 3.28439 4.63254 1.54285 1.19691 1.54285H0.773346L21.6224 33.7378C25.7169 40.0921 32.6353 43.9046 40.1182 43.9046H94.3352V43.8575Z" fill="black"></path><path d="M164.506 2.9541C164.506 3.04824 164.506 11.7089 164.506 11.7089C164.506 15.5685 167.424 15.5685 168.506 15.5685H188.602V13.6858C188.602 13.6858 186.86 13.6858 185.166 13.4504C183.566 13.168 182.295 11.9442 182.295 10.2968C182.295 8.6494 183.707 7.14321 185.449 7.14321C187.189 7.14321 186.484 7.28442 186.908 7.51976L187.566 6.67252C187.566 6.62545 187.472 6.57838 187.425 6.53131C186.343 5.63701 184.836 5.30753 183.707 5.30753C179.848 5.30753 178.389 8.88474 178.389 10.3439C178.389 11.803 178.719 12.8385 179.33 13.6387H170.2C169.023 13.6387 168.458 12.9798 168.458 11.6618V1.02428H163.093V2.0598C163.093 2.0598 164.27 2.0598 164.458 2.9541H164.506Z" fill="black"></path><path d="M183.426 4.03682C184.32 4.03682 185.025 3.33079 185.025 2.43648C185.025 1.54218 184.32 0.836151 183.426 0.836151C182.532 0.836151 181.826 1.54218 181.826 2.43648C181.826 3.33079 182.532 4.03682 183.426 4.03682Z" fill="black"></path><path d="M194.957 11.1897V12.2722C194.957 13.3548 194.957 14.7198 194.957 14.814C194.957 17.4027 195.099 20.8859 203.428 20.8859C211.759 20.8859 211.194 17.5439 211.194 14.814C211.194 14.814 211.9 15.6141 213.595 15.6141H233.549C234.631 15.6141 237.549 15.2847 237.549 11.8016V4.50591H232.137V5.54142C232.137 5.54142 233.502 5.54142 233.502 6.67107V11.8016C233.502 13.0724 233.032 13.6842 231.855 13.6842H213.547C212.324 13.6842 211.148 12.6959 211.148 11.4721V5.11781H205.735V6.15332C205.735 6.15332 206.112 6.15332 206.488 6.34159C206.817 6.4828 207.1 6.76521 207.1 7.28297V11.6603C207.1 15.6611 207.24 19.4267 203.288 19.4267C199.334 19.4267 198.863 16.0378 198.863 12.3193V11.7545V9.11865H193.451V10.1542C193.451 10.1542 194.816 10.1542 194.816 11.2838L194.957 11.1897Z" fill="black"></path><path d="M212.417 42.4928C211.994 42.3986 211.335 42.1633 211.335 41.4102V30.6786C211.335 30.4432 211.383 30.255 211.477 30.1137H214.065C214.677 30.2079 214.96 31.5729 215.289 31.9966L216.089 31.62L215.383 28.2781C215.289 28.2781 214.159 28.5605 213.876 28.5605H204.653C204.322 28.5605 202.676 28.3723 202.582 28.3252L201.969 31.62L202.769 31.9966C203.099 31.5729 203.382 30.1608 203.993 30.1137H207.052C207.146 30.255 207.194 30.4432 207.194 30.6786V41.4102C207.194 42.1633 206.582 42.3986 206.158 42.4928V43.6224H212.277V42.5399L212.417 42.4928Z" fill="black"></path><path d="M226.771 42.4928C226.347 42.3986 225.689 42.1633 225.689 41.4102V30.6786C225.689 30.4432 225.736 30.255 225.83 30.1137H228.888C229.501 30.2079 229.782 31.5729 230.112 31.9966L230.912 31.62L230.207 28.2781C230.112 28.2781 228.513 28.5605 228.23 28.5605H219.006C218.675 28.5605 217.5 28.3723 217.406 28.3252L216.793 31.62L217.593 31.9966C217.923 31.5729 218.206 30.1608 218.817 30.1137H221.406C221.499 30.255 221.547 30.4432 221.547 30.6786V41.4102C221.547 42.1633 220.935 42.3986 220.511 42.4928V43.6224H226.63V42.5399L226.771 42.4928Z" fill="black"></path><path d="M202.863 10.8143C203.758 10.8143 204.464 10.1082 204.464 9.21393C204.464 8.31963 203.758 7.61359 202.863 7.61359C201.969 7.61359 201.264 8.31963 201.264 9.21393C201.264 10.1082 201.969 10.8143 202.863 10.8143Z" fill="black"></path><path d="M238.583 42.4456C238.159 42.3514 237.594 42.1161 237.594 41.363V30.6314C237.594 29.9254 238.206 29.6429 238.583 29.5487V28.4662H232.511V29.5487C232.935 29.6429 233.593 29.8783 233.593 30.6314V41.363C233.593 42.1161 232.935 42.3514 232.511 42.4456V43.5281H238.583V42.4456Z" fill="black"></path><path d="M236.748 18.2048C236.748 17.3106 236.042 16.6045 235.147 16.6045C234.253 16.6045 233.547 17.3106 233.547 18.2048C233.547 19.0992 234.253 19.8052 235.147 19.8052C236.042 19.8052 236.748 19.0992 236.748 18.2048Z" fill="black"></path><path d="M119.184 21.7817C118.29 21.7817 117.584 22.4877 117.584 23.382C117.584 24.2763 118.29 24.9824 119.184 24.9824C120.078 24.9824 120.784 24.2763 120.784 23.382C120.784 22.4877 120.078 21.7817 119.184 21.7817Z" fill="black"></path><path d="M187.615 42.6804C187.145 42.5862 186.487 42.2568 186.487 41.4095V30.6779C186.487 29.5952 187.85 29.5481 187.85 29.5481V28.5127H181.074V29.5481C181.074 29.5481 182.439 29.5481 182.439 30.6779V35.1023H176.65V30.6779C176.65 29.5952 178.015 29.5481 178.015 29.5481V28.5127H171.614V29.5952C172.037 29.6894 172.65 29.9248 172.65 30.6779V41.4095C172.65 42.1626 172.037 42.3979 171.614 42.4921V43.5746H177.638V42.4921C177.214 42.3979 176.65 42.1626 176.65 41.4566V37.0792H182.439V41.5037C182.439 42.2097 181.874 42.4921 181.45 42.5391V43.6688H187.569V42.7744L187.615 42.6804Z" fill="black"></path><path d="M169.874 36.9853H164.274V38.0679C164.697 38.162 165.262 38.3974 165.262 39.1034V42.2099C164.885 42.3041 164.414 42.3982 163.945 42.3982C160.696 42.3982 158.626 39.527 158.626 35.9498C158.626 32.3726 160.744 29.5014 163.945 29.5014C167.144 29.5014 167.568 31.243 168.086 32.0902L168.933 31.8548L168.321 28.4188H167.286C166.486 28.56 164.933 28.1365 163.52 28.1365C158.532 28.1365 154.484 31.6195 154.484 35.9498C154.484 40.2801 158.532 43.7632 163.52 43.7632C168.509 43.7632 167.474 43.1513 168.98 42.1628V39.0092C168.98 38.3032 169.545 38.0679 169.968 37.9738V36.8911L169.874 36.9853Z" fill="black"></path><path d="M113.16 11.097V13.4974C113.16 15.8039 113.725 17.0747 114.808 18.3455C115.984 19.7106 118.196 20.4166 120.455 20.4166C122.949 20.4166 129.068 20.9344 129.068 15.5214V13.6858H127.045C125.538 13.6858 124.785 12.8856 124.785 10.9087C124.785 8.93181 125.773 7.04908 127.797 7.04908H130.056V11.9913C130.056 15.5214 132.785 15.5685 133.869 15.5685H161.354V9.73198C161.354 8.36699 161.354 4.78977 155.564 5.3546C151.564 5.73114 148.505 9.68491 147.799 10.9558V2.01273V1.02428H142.387V2.0598C142.387 2.0598 143.752 2.0598 143.752 3.14238V13.6858H135.563C134.386 13.6858 133.821 13.0267 133.821 11.7089V5.40167H127.514C125.256 5.40167 120.879 7.14321 120.879 11.2853C120.879 15.4272 124.173 15.0978 125.397 15.0978C125.397 16.7452 124.785 18.7692 120.361 18.7692C115.937 18.7692 117.114 16.3216 117.114 13.3563V8.97888H111.701V10.0144C111.701 10.0144 112.972 10.0144 113.066 11.0028L113.16 11.097ZM155.424 7.42562C157.352 7.42562 157.306 9.2613 157.306 10.2027V13.7328H147.846C148.175 12.6973 151.941 7.42562 155.47 7.42562H155.424Z" fill="black"></path><path d="M153.024 28.5131H148.318V29.5486C148.318 29.5486 149.683 29.5486 149.683 30.6782V37.2208L138.716 27.9483V41.4099C138.716 42.116 138.152 42.3984 137.728 42.4454V43.528H142.388V42.4925C142.388 42.4925 141.023 42.4925 141.023 41.3629V35.0556L151.989 43.9987V30.6782C151.989 29.9722 152.6 29.6898 152.977 29.5957V28.5131H153.024Z" fill="black"></path><path d="M202.768 41.786L196.932 28.8892C196.839 28.6539 196.603 28.5127 196.321 28.5127C196.038 28.5127 195.803 28.6539 195.709 28.9363L190.062 41.4095C189.827 41.9743 189.356 42.4921 188.743 42.6804V43.6217H192.791V42.5862H192.697C192.32 42.5862 191.803 42.1155 192.086 41.5506L192.791 39.9032H198.11L198.816 41.5977C199.05 42.1626 198.627 42.4921 198.156 42.5862V43.6688H204.087V42.6333C204.087 42.6333 203.239 42.7744 202.768 41.8802V41.786ZM193.591 37.9265L195.427 33.5961L197.262 37.9265H193.591Z" fill="black"></path><path d="M135.28 42.4456C134.857 42.3514 134.292 42.1161 134.292 41.363V30.6314C134.292 29.9254 134.903 29.6429 135.28 29.5489V28.4662H129.303V29.5489C129.726 29.6429 130.291 29.8783 130.291 30.5843V41.316C130.291 42.022 129.726 42.2574 129.303 42.3514V43.4341H135.28V42.3514V42.4456Z" fill="black"></path><path d="M122.713 35.1487C124.172 35.1487 126.149 34.3485 126.149 32.1363C126.149 29.9242 123.09 28.5591 120.172 28.5591H112.124V29.6417C112.548 29.7358 113.113 29.9711 113.113 30.6772V41.4089C113.113 42.1149 112.548 42.3502 112.124 42.4444V43.5269H120.172C123.938 43.5269 126.996 42.4914 126.996 39.2908C126.996 36.0901 125.301 35.9019 122.713 35.1487ZM117.113 30.6772C117.113 29.83 117.96 29.6417 118.337 29.5946C121.395 29.2181 122.479 30.8184 122.479 32.1834C122.479 33.5485 121.443 34.7721 117.96 34.7721H117.113V30.7242V30.6772ZM118.384 42.4914C118.054 42.4914 117.113 42.3031 117.113 41.4089V36.043C121.631 36.043 123.137 37.361 123.137 39.1495C123.137 40.9382 121.584 42.8209 118.384 42.5385V42.4914Z" fill="black"></path><path d="M121.632 23.382C121.632 24.2763 122.338 24.9824 123.232 24.9824C124.127 24.9824 124.832 24.2763 124.832 23.382C124.832 22.4877 124.127 21.7817 123.232 21.7817C122.338 21.7817 121.632 22.4877 121.632 23.382Z" fill="black"></path></g></g><defs><clipPath id="clip0_69_47"><rect width="239" height="44" fill="white"></rect></clipPath></defs></svg>