<svg xmlns="http://www.w3.org/2000/svg" width="57" height="52" viewBox="0 0 57 52" fill="none"><g clip-path="url(#clip0_6002_443)"><path d="M49.3993 14.1811H39.6725L46.6671 2.58393C46.9353 2.15002 47.4222 1.88376 47.9388 1.89362C48.7237 1.87389 49.3695 2.48531 49.3993 3.26437V14.191V14.1811ZM37.0495 14.1811H27.3226L34.3172 2.58393C34.5855 2.15002 35.0723 1.88376 35.589 1.89362C36.3739 1.87389 37.0197 2.48531 37.0495 3.26437V14.191V14.1811ZM36.046 16.5282C35.4598 17.4946 35.1518 18.609 35.1518 19.743V21.7449H24.6997V19.743C24.6997 18.9541 24.9183 18.1751 25.3256 17.5045L26.1801 16.0745H36.3143L36.0361 16.5282H36.046ZM35.1518 28.362H24.6997V23.6384H35.1518V28.362ZM56.0462 14.1811H51.297V3.26437C51.2672 1.43999 49.767 -0.0195256 47.9388 0.000197563C46.7565 0.000197563 45.6537 0.611614 45.0377 1.61749L38.9472 11.7157V3.26437C38.9273 1.43999 37.4171 -0.0195256 35.589 0.000197563C34.4067 0.000197563 33.3038 0.611614 32.6878 1.61749L25.107 14.1811H0.953809C0.427227 14.1811 0 14.6052 0 15.1278C0 15.6505 0.427227 16.0745 0.953809 16.0745H23.9644L23.6862 16.5282C23.1001 17.4946 22.7921 18.609 22.7921 19.743V34.0423C22.7921 34.565 23.2193 34.989 23.7459 34.989C24.2724 34.989 24.6997 34.565 24.6997 34.0423V30.2653H35.1518V34.0423C35.1518 34.565 35.579 34.989 36.1056 34.989C36.6322 34.989 37.0594 34.565 37.0594 34.0423V19.743C37.0594 18.9541 37.278 18.1751 37.6854 17.5045L38.5498 16.0745H56.0661C56.5926 16.0745 57.0199 15.6505 57.0199 15.1278C57.0199 14.6052 56.5926 14.1811 56.0661 14.1811" fill="#BE0000"></path><path d="M56.7218 38.0853C56.3542 37.7106 55.7481 37.7007 55.3805 38.0656C53.9101 39.4758 51.5852 39.4758 50.1147 38.0656C47.909 35.9552 44.4117 35.9552 42.1961 38.0656C40.7257 39.4758 38.4007 39.4758 36.9303 38.0656C34.7147 35.9552 31.2273 35.9552 29.0117 38.0656C27.5412 39.4758 25.2163 39.4758 23.7459 38.0656C21.5402 35.9552 18.0429 35.9552 15.8273 38.0656C14.3568 39.4758 12.0319 39.4758 10.5615 38.0656C8.34584 35.9552 4.85847 35.9552 2.64286 38.0656L0.288141 40.3436C-0.0894086 40.7085 -0.0993441 41.31 0.26827 41.6848C0.635883 42.0595 1.23201 42.0694 1.60956 41.7045L3.96428 39.4265C5.43473 38.0163 7.75964 38.0163 9.2301 39.4265C11.4457 41.5368 14.9331 41.5368 17.1487 39.4265C18.6192 38.0163 20.9441 38.0163 22.4145 39.4265C24.6301 41.5368 28.1175 41.5368 30.3331 39.4265C31.8036 38.0163 34.1285 38.0163 35.5989 39.4265C37.8145 41.5368 41.3019 41.5368 43.5175 39.4265C44.988 38.0163 47.3129 38.0163 48.7833 39.4265C50.999 41.5368 54.4863 41.5368 56.7019 39.4265C57.0795 39.0616 57.0894 38.46 56.7218 38.0853Z" fill="#BE0000"></path><path d="M56.7218 28.9141C56.3542 28.5394 55.7481 28.5295 55.3805 28.8944C53.9101 30.3046 51.5852 30.3046 50.1147 28.8944C47.909 26.7841 44.4117 26.7841 42.1961 28.8944C41.5602 29.5058 40.7157 29.8806 39.8315 29.9398C39.3049 29.9792 38.9174 30.423 38.9472 30.9456C38.9869 31.4683 39.444 31.8529 39.9606 31.8233C41.3019 31.7346 42.5637 31.1724 43.5275 30.2455C44.9979 28.8353 47.3228 28.8353 48.7933 30.2455C51.0089 32.3558 54.4963 32.3558 56.7119 30.2455C57.0894 29.8806 57.0994 29.279 56.7317 28.9043" fill="#BE0000"></path><path d="M19.9803 27.3166C18.4403 27.2574 16.9401 27.8294 15.8273 28.9043C14.3568 30.3145 12.0319 30.3145 10.5615 28.9043C8.34584 26.7939 4.85847 26.7939 2.64286 28.9043L0.288141 31.1921C-0.0894086 31.557 -0.0993441 32.1586 0.26827 32.5333C0.635883 32.9081 1.24195 32.9179 1.60956 32.553L3.96428 30.275C5.43473 28.8747 7.75964 28.8747 9.2301 30.275C11.4457 32.3854 14.9331 32.3854 17.1487 30.275C17.8839 29.565 18.8874 29.1804 19.9108 29.2198C20.4373 29.2396 20.8745 28.8254 20.8944 28.3027C20.9143 27.78 20.497 27.3461 19.9803 27.3264" fill="#BE0000"></path><path d="M56.7218 48.1146C56.3542 47.7398 55.7481 47.73 55.3805 48.0949C53.9101 49.5051 51.5852 49.5051 50.1147 48.0949C47.8991 45.9845 44.4117 45.9845 42.1961 48.0949C40.7257 49.5051 38.4007 49.5051 36.9303 48.0949C34.7147 45.9845 31.2273 45.9845 29.0117 48.0949C27.5412 49.5051 25.2163 49.5051 23.7459 48.0949C21.5402 45.9845 18.0429 45.9845 15.8273 48.0949C14.3568 49.5051 12.0319 49.5051 10.5615 48.0949C8.34584 45.9845 4.85847 45.9845 2.64286 48.0949L0.288141 50.3729C-0.0894086 50.7378 -0.0993441 51.3393 0.26827 51.7141C0.635883 52.0888 1.23201 52.0987 1.60956 51.7338L3.96428 49.4558C5.43473 48.0554 7.75964 48.0554 9.2301 49.4558C11.4457 51.5661 14.9331 51.5661 17.1487 49.4558C18.6192 48.0456 20.9441 48.0456 22.4145 49.4558C24.6301 51.5661 28.1175 51.5661 30.3331 49.4558C31.8036 48.0456 34.1285 48.0456 35.5989 49.4558C37.8145 51.5661 41.3019 51.5661 43.5175 49.4558C44.988 48.0456 47.3129 48.0456 48.7833 49.4558C50.999 51.5661 54.4863 51.5661 56.7019 49.4558C57.0795 49.0909 57.0894 48.4893 56.7218 48.1146Z" fill="#BE0000"></path></g><defs><clipPath id="clip0_6002_443"><rect width="57" height="52" fill="white"></rect></clipPath></defs></svg>